<?xml version="1.0" encoding="UTF-8"?>
<svg id="Layer_1" data-name="Layer 1" xmlns="http://www.w3.org/2000/svg" viewBox="0 0 238.83 33.04"><defs><style>.cls-1,.cls-2{fill:#7f64b5;}.cls-1{fill-rule:evenodd;}.cls-3{fill:#54667a;}</style></defs><title>medical-logo</title><path id="pulse" class="cls-1" d="M540.57,286.53,524,303l-16.9-16.46A10.13,10.13,0,0,1,508,273a10.77,10.77,0,0,1,15,0l.83.81.83-.81a10.76,10.76,0,0,1,15,0A10.11,10.11,0,0,1,540.57,286.53Zm-2.17,0L523.84,301,509,286.53a8.89,8.89,0,0,1,.81-11.91,9.46,9.46,0,0,1,13.16,0l.73.71.74-.71a9.46,9.46,0,0,1,13.16,0A8.91,8.91,0,0,1,538.4,286.53Z" transform="translate(-504.94 -269.96)"/><path class="cls-2" d="M523.39,277.13c-.23.18-1.55,7.15-1.55,7.23s0,.07,0,.07a0,0,0,0,1,0,0,1.31,1.31,0,0,0-.28-.51.8.8,0,0,0-.59-.26.49.49,0,0,0-.38.07,2.2,2.2,0,0,0-.89,1c-.26.46-.38.58-.62.71l-.22.11H508v1.16h3.93l1.48,0,3,0c2.5,0,2.46,0,2.83-.11a2.53,2.53,0,0,0,1.39-1.2l.2-.34.06.1.06.11a1.18,1.18,0,0,0,.1.19l.37.67c.35.66.44.75.76.75a.48.48,0,0,0,.4-.15c.16-.15.14-.06.35-1.51.12-.77.16-1.06.19-1.23s.27-1.88.3-2.1a1.76,1.76,0,0,1,0-.29s0-.25.08-.48.07-.44.07-.45a.76.76,0,0,1,0,.26c0,.15,0,.41,0,.57s.19,2.1.25,2.75c0,.17.07.87.13,1.57a11,11,0,0,0,.59,2.7.54.54,0,0,0,.49.25.37.37,0,0,0,.31-.1.69.69,0,0,0,.29-.59,15.85,15.85,0,0,1,.74-1.9c0-.05,0-.05.1,0a.55.55,0,0,0,.47.11c.32-.07.43-.24.64-1,.26-.94.45-1.54.46-1.52s.07.2.13.39c.27.88.68,2.13.8,2.39a.8.8,0,0,0,1,.44,1.44,1.44,0,0,0,.47-.48l.1-.19.17.09a2.81,2.81,0,0,0,.42.17,2.12,2.12,0,0,0,.83.1l8,0v-1.18s-8,0-8.3,0a1.27,1.27,0,0,1-.32-.07l-.34-.18a1,1,0,0,0-1.06,0c-.1.05-.14.06-.15,0s0-.13-.07-.23-.29-.88-.45-1.42c0-.18-.12-.39-.14-.47s-.13-.4-.22-.72a6.66,6.66,0,0,0-.34-1.06.6.6,0,0,0-.75-.19c-.24.12-.24.12-.66,1.55,0,.08-.08.27-.12.42s-.15.5-.24.8-.17.56-.17.6,0,.09-.18,0a.67.67,0,0,0-.58,0c-.34.17-.41.32-.58,1.23-.06.26-.06.28-.08.18s-1-8.75-1.23-8.94a.38.38,0,0,0-.3-.1A.44.44,0,0,0,523.39,277.13Z" transform="translate(-504.94 -269.96)"/><path class="cls-3" d="M553,293.8a2.26,2.26,0,0,1-1.08-.25.8.8,0,0,1-.49-.75V277.37a.77.77,0,0,1,.49-.75,2.51,2.51,0,0,1,1.08-.22,2.44,2.44,0,0,1,1,.22.78.78,0,0,1,.47.75v6.19h5.36v-6.19a.77.77,0,0,1,.49-.75,2.51,2.51,0,0,1,1.08-.22,2.44,2.44,0,0,1,1,.22.76.76,0,0,1,.47.75V292.8a.8.8,0,0,1-.47.75,2.2,2.2,0,0,1-1,.25,2.26,2.26,0,0,1-1.08-.25.8.8,0,0,1-.49-.75V286h-5.36v6.81a.82.82,0,0,1-.47.75A2.2,2.2,0,0,1,553,293.8Z" transform="translate(-504.94 -269.96)"/><path class="cls-3" d="M567.21,293.8a1.8,1.8,0,0,1-.93-.25.83.83,0,0,1-.43-.75V277.4a.81.81,0,0,1,.43-.75,1.8,1.8,0,0,1,.93-.25h8.48a.78.78,0,0,1,.75.42,1.94,1.94,0,0,1,.22.91,1.81,1.81,0,0,1-.25,1,.79.79,0,0,1-.72.4H569v4.76h3.62a.79.79,0,0,1,.72.37,1.51,1.51,0,0,1,.25.87,1.61,1.61,0,0,1-.22.8.8.8,0,0,1-.75.39H569v4.78h6.74a.8.8,0,0,1,.72.41,1.79,1.79,0,0,1,.25,1,1.93,1.93,0,0,1-.22.9.78.78,0,0,1-.75.43Z" transform="translate(-504.94 -269.96)"/><path class="cls-3" d="M579.21,293.8a2.54,2.54,0,0,1-.88-.17,2.19,2.19,0,0,1-.76-.45.87.87,0,0,1-.31-.67s0-.12,0-.23l4.6-15a1.29,1.29,0,0,1,.75-.79,3.16,3.16,0,0,1,2.51,0,1.3,1.3,0,0,1,.74.79l4.59,15a1.21,1.21,0,0,1,0,.23.9.9,0,0,1-.32.66,2.24,2.24,0,0,1-.78.46,2.54,2.54,0,0,1-.88.17,1.6,1.6,0,0,1-.65-.13.71.71,0,0,1-.37-.49l-.91-3.17h-5.47l-.88,3.17a.72.72,0,0,1-.38.49A1.74,1.74,0,0,1,579.21,293.8Zm2.6-6.22H586l-2.07-7.3Z" transform="translate(-504.94 -269.96)"/><path class="cls-3" d="M593.49,293.8a1.74,1.74,0,0,1-.92-.25.81.81,0,0,1-.43-.75V277.37a.77.77,0,0,1,.49-.75,2.45,2.45,0,0,1,1.06-.22,2.5,2.5,0,0,1,1.07.22.78.78,0,0,1,.47.75v13.71h5.83a.74.74,0,0,1,.7.42,2.19,2.19,0,0,1,0,1.87.73.73,0,0,1-.7.43Z" transform="translate(-504.94 -269.96)"/><path class="cls-3" d="M606.16,293.8a2.22,2.22,0,0,1-1.07-.25.81.81,0,0,1-.48-.75V279.18h-3.5a.79.79,0,0,1-.71-.43,1.76,1.76,0,0,1-.26-1,2,2,0,0,1,.23-.94.78.78,0,0,1,.74-.44h10.07a.77.77,0,0,1,.75.44,2,2,0,0,1,.23.94,1.85,1.85,0,0,1-.25,1,.79.79,0,0,1-.73.43h-3.47V292.8a.82.82,0,0,1-.49.75A2.27,2.27,0,0,1,606.16,293.8Z" transform="translate(-504.94 -269.96)"/><path class="cls-3" d="M615.37,293.8a2.29,2.29,0,0,1-1.08-.25.8.8,0,0,1-.49-.75V277.37a.77.77,0,0,1,.49-.75,2.54,2.54,0,0,1,1.08-.22,2.44,2.44,0,0,1,1,.22.77.77,0,0,1,.48.75v6.19h5.35v-6.19a.78.78,0,0,1,.49-.75,2.58,2.58,0,0,1,1.08-.22,2.44,2.44,0,0,1,1,.22.77.77,0,0,1,.48.75V292.8a.81.81,0,0,1-.48.75,2.2,2.2,0,0,1-1,.25,2.32,2.32,0,0,1-1.08-.25.82.82,0,0,1-.49-.75V286H616.9v6.81a.81.81,0,0,1-.48.75A2.2,2.2,0,0,1,615.37,293.8Z" transform="translate(-504.94 -269.96)"/><path class="cls-3" d="M637.09,284a5.14,5.14,0,0,1-.52-2.1,3.56,3.56,0,0,1,.65-2.05,5.17,5.17,0,0,1,1.66-1.53,4.07,4.07,0,0,1,2.08-.58,3,3,0,0,1,2,.67,2,2,0,0,1,.81,1.59,2.28,2.28,0,0,1-.39,1.29c-.26.4-.53.6-.82.6a.19.19,0,0,1-.21-.22,1.18,1.18,0,0,1,.12-.36,2.51,2.51,0,0,0,.18-.92,1.37,1.37,0,0,0-.57-1.14,2.18,2.18,0,0,0-1.37-.43,3.45,3.45,0,0,0-2.41,1.06,3.26,3.26,0,0,0-1.12,2.44,2.92,2.92,0,0,0,.16,1,1.72,1.72,0,0,0,.3.55.54.54,0,0,0,.38.13c1.06,0,1.6.31,1.6.93a.72.72,0,0,1-.17.44.59.59,0,0,1-.49.21,1.59,1.59,0,0,1-.92-.48,1.81,1.81,0,0,0-1.16-.51,1.85,1.85,0,0,0-1.39.73,2.47,2.47,0,0,0-.66,1.72,4.93,4.93,0,0,0,1.93,3.67,7,7,0,0,0,4.8,1.73,7.89,7.89,0,0,0,4.66-1.36,3.89,3.89,0,0,0,1.93-3.23,2.94,2.94,0,0,0-.95-2.18,3.55,3.55,0,0,0-2.58-.93,4,4,0,0,0-2.34.72,2.13,2.13,0,0,0-1,1.8,1.53,1.53,0,0,0,.37,1.07,1,1,0,0,0,.77.42c.3,0,.45-.16.45-.49v-.14a2,2,0,0,1,0-.21,1.24,1.24,0,0,1,.28-.84.87.87,0,0,1,.7-.33,1,1,0,0,1,.71.29,1,1,0,0,1,.31.79,1.61,1.61,0,0,1-.51,1.22,1.78,1.78,0,0,1-1.3.49,2.24,2.24,0,0,1-1.62-.67,2.21,2.21,0,0,1-.68-1.64,3.59,3.59,0,0,1,1.2-2.61q1.2-1.17,4.35-1.17a8.17,8.17,0,0,0,4.1-.78,2.55,2.55,0,0,0,1.28-2.34,2.09,2.09,0,0,0-.57-1.52,1.9,1.9,0,0,0-1.44-.6,1.39,1.39,0,0,0-.65.12.41.41,0,0,0-.21.38.92.92,0,0,0,.21.46,1.31,1.31,0,0,1,.26.75,1,1,0,0,1-.33.75,1.11,1.11,0,0,1-.82.33,1.07,1.07,0,0,1-.88-.38,1.31,1.31,0,0,1-.3-.87,1.84,1.84,0,0,1,.77-1.42,3.07,3.07,0,0,1,2-.62,2.65,2.65,0,0,1,2.05.9,3.09,3.09,0,0,1,.82,2.17,3.68,3.68,0,0,1-.7,2.18,3.86,3.86,0,0,1-1.78,1.4,9.73,9.73,0,0,1-3,.47,4,4,0,0,1,1.86,3.37,4.79,4.79,0,0,1-1.13,3,7,7,0,0,1-2.77,2.14,9.9,9.9,0,0,1-4,.7,9.57,9.57,0,0,1-3.07-.41,8.42,8.42,0,0,1-2.24-1.21,5.62,5.62,0,0,1-1.67-1.93,5.15,5.15,0,0,1-.61-2.46,4.07,4.07,0,0,1,.91-2.7A4.17,4.17,0,0,1,637.09,284Z" transform="translate(-504.94 -269.96)"/><path class="cls-3" d="M659.63,293.8a2.27,2.27,0,0,1-1.06-.25.8.8,0,0,1-.49-.75V277.94a1.36,1.36,0,0,1,.49-1.2,1.81,1.81,0,0,1,1.06-.34,3.73,3.73,0,0,1,1,.11,1.69,1.69,0,0,1,.74.48,5.35,5.35,0,0,1,.73,1.05l2.93,5.33,2.9-5.33a8.7,8.7,0,0,1,.75-1.05,1.56,1.56,0,0,1,.73-.48,3.76,3.76,0,0,1,1-.11,1.79,1.79,0,0,1,1.07.34,1.38,1.38,0,0,1,.48,1.2V292.8a.82.82,0,0,1-.49.75,2.27,2.27,0,0,1-1.06.25,2.24,2.24,0,0,1-1.06-.25.8.8,0,0,1-.49-.75V282.59l-2.76,5a1.46,1.46,0,0,1-.5.49,1.13,1.13,0,0,1-1.11,0,1.38,1.38,0,0,1-.49-.5l-2.73-5.12V292.8a.81.81,0,0,1-.48.75A2.22,2.22,0,0,1,659.63,293.8Z" transform="translate(-504.94 -269.96)"/><path class="cls-3" d="M676.08,293.8a1.8,1.8,0,0,1-.93-.25.83.83,0,0,1-.43-.75V277.4a.81.81,0,0,1,.43-.75,1.8,1.8,0,0,1,.93-.25h8.47a.78.78,0,0,1,.75.42,1.84,1.84,0,0,1,.23.91,1.81,1.81,0,0,1-.25,1,.81.81,0,0,1-.73.4h-6.73v4.76h3.62a.81.81,0,0,1,.72.37,1.51,1.51,0,0,1,.25.87,1.61,1.61,0,0,1-.22.8.8.8,0,0,1-.75.39h-3.62v4.78h6.73a.81.81,0,0,1,.73.41,1.79,1.79,0,0,1,.25,1,1.83,1.83,0,0,1-.23.9.78.78,0,0,1-.75.43Z" transform="translate(-504.94 -269.96)"/><path class="cls-3" d="M688.7,293.8a1.58,1.58,0,0,1-1-.29.84.84,0,0,1-.37-.69V277.37a.84.84,0,0,1,.37-.69,1.57,1.57,0,0,1,1-.28h4.21a7.24,7.24,0,0,1,2.85.53,4.32,4.32,0,0,1,2,1.74,6,6,0,0,1,.75,3.2v6.45a6,6,0,0,1-.75,3.21,4.25,4.25,0,0,1-2,1.73,7.24,7.24,0,0,1-2.85.54Zm1.74-2.72h2.5a2.47,2.47,0,0,0,1.83-.67,2.91,2.91,0,0,0,.66-2.09v-6.45a2.89,2.89,0,0,0-.66-2.08,2.48,2.48,0,0,0-1.83-.68h-2.5Z" transform="translate(-504.94 -269.96)"/><path class="cls-3" d="M702.74,293.8a2.29,2.29,0,0,1-1.08-.25.8.8,0,0,1-.49-.75V277.37a.77.77,0,0,1,.49-.75,2.54,2.54,0,0,1,1.08-.22,2.44,2.44,0,0,1,1,.22.77.77,0,0,1,.48.75V292.8a.81.81,0,0,1-.48.75A2.2,2.2,0,0,1,702.74,293.8Z" transform="translate(-504.94 -269.96)"/><path class="cls-3" d="M712.46,293.94a7,7,0,0,1-2.74-.53,4.35,4.35,0,0,1-2-1.74,6,6,0,0,1-.75-3.2v-6.6a6,6,0,0,1,.75-3.2,4.35,4.35,0,0,1,2-1.74,6.93,6.93,0,0,1,2.76-.53,7.14,7.14,0,0,1,2.94.56,4.76,4.76,0,0,1,2,1.55,4,4,0,0,1,.73,2.41,1.5,1.5,0,0,1-.39,1.23,1.92,1.92,0,0,1-1.16.29,2.34,2.34,0,0,1-1.08-.22.82.82,0,0,1-.47-.75,3.75,3.75,0,0,0-.08-.68,2.86,2.86,0,0,0-.32-.78,1.93,1.93,0,0,0-.73-.64,2.93,2.93,0,0,0-1.34-.26,2.45,2.45,0,0,0-1.86.68,2.93,2.93,0,0,0-.64,2.08v6.6a2.86,2.86,0,0,0,.65,2.09,2.52,2.52,0,0,0,1.89.67,2.76,2.76,0,0,0,1.29-.26,1.79,1.79,0,0,0,.7-.66,2.72,2.72,0,0,0,.31-.82c.06-.29.1-.56.13-.81a.84.84,0,0,1,.48-.77,2.34,2.34,0,0,1,1.05-.21,1.89,1.89,0,0,1,1.18.31,1.51,1.51,0,0,1,.39,1.22,4.4,4.4,0,0,1-.73,2.5,4.61,4.61,0,0,1-2,1.64A7.22,7.22,0,0,1,712.46,293.94Z" transform="translate(-504.94 -269.96)"/><path class="cls-3" d="M721,293.8a2.59,2.59,0,0,1-.88-.17,2.29,2.29,0,0,1-.76-.45.87.87,0,0,1-.31-.67s0-.12,0-.23l4.6-15a1.29,1.29,0,0,1,.75-.79,3.16,3.16,0,0,1,2.51,0,1.3,1.3,0,0,1,.74.79l4.59,15a1.21,1.21,0,0,1,0,.23.9.9,0,0,1-.32.66,2.19,2.19,0,0,1-.77.46,2.64,2.64,0,0,1-.89.17,1.6,1.6,0,0,1-.65-.13.71.71,0,0,1-.37-.49l-.9-3.17h-5.48l-.88,3.17a.69.69,0,0,1-.38.49A1.7,1.7,0,0,1,721,293.8Zm2.6-6.22h4.14l-2.07-7.3Z" transform="translate(-504.94 -269.96)"/><path class="cls-3" d="M735.29,293.8a1.75,1.75,0,0,1-.93-.25.81.81,0,0,1-.43-.75V277.37a.77.77,0,0,1,.49-.75,2.69,2.69,0,0,1,2.13,0,.76.76,0,0,1,.47.75v13.71h5.84a.74.74,0,0,1,.69.42,2.19,2.19,0,0,1,0,1.87.73.73,0,0,1-.69.43Z" transform="translate(-504.94 -269.96)"/></svg>